<?xml version="1.0" encoding="UTF-8" standalone="no"?>
<!-- Created with Inkscape (http://www.inkscape.org/) -->

<svg
   width="1024"
   height="1024"
   viewBox="0 0 1024 1024"
   version="1.1"
   id="svg1"
   xmlns="http://www.w3.org/2000/svg"
   xmlns:svg="http://www.w3.org/2000/svg">
  <defs
     id="defs1" />
  <rect
     style="fill:#241f31;stroke-width:22;paint-order:stroke fill markers"
     id="rect1"
     width="1024"
     height="1024"
     x="0"
     y="0" />
  <g
     id="layer1"
     style="display:none">
    <text
       xml:space="preserve"
       style="font-style:normal;font-variant:normal;font-weight:normal;font-stretch:normal;font-size:682.667px;line-height:0px;font-family:'Alibaba PuHuiTi';-inkscape-font-specification:'Alibaba PuHuiTi';text-align:center;text-decoration-color:#000000;text-orientation:upright;fill:#ffffff;stroke-width:22;paint-order:stroke fill markers"
       x="503.4664"
       y="749.90942"
       id="text1"><tspan
         id="tspan1"
         x="503.4664"
         y="749.90942"
         style="font-style:normal;font-variant:normal;font-weight:bold;font-stretch:normal;font-size:682.667px;font-family:'Alibaba PuHuiTi';-inkscape-font-specification:'Alibaba PuHuiTi Bold';text-align:center;text-anchor:middle;display:inline;fill:#ffffff">课</tspan></text>
    <text
       xml:space="preserve"
       style="font-style:normal;font-variant:normal;font-weight:bold;font-stretch:normal;font-size:192px;line-height:0px;font-family:'Alibaba PuHuiTi';-inkscape-font-specification:'Alibaba PuHuiTi Bold';text-align:center;text-decoration-color:#000000;text-orientation:upright;text-anchor:middle;fill:#deddda;stroke-width:22;paint-order:stroke fill markers"
       x="512.57593"
       y="174.33098"
       id="text2"><tspan
         id="tspan2"
         x="512.57593"
         y="174.33098"
         style="font-size:192px;fill:#deddda">不想上</tspan></text>
    <text
       xml:space="preserve"
       style="font-style:normal;font-variant:normal;font-weight:bold;font-stretch:normal;font-size:192px;line-height:0px;font-family:'Alibaba PuHuiTi';-inkscape-font-specification:'Alibaba PuHuiTi Bold';text-align:center;text-decoration-color:#000000;text-orientation:upright;text-anchor:middle;fill:#deddda;stroke-width:22;paint-order:stroke fill markers"
       x="402.1973"
       y="985.00427"
       id="text3"><tspan
         id="tspan3"
         x="402.1973"
         y="985.00427">几点吃饭</tspan></text>
    <text
       xml:space="preserve"
       style="font-style:normal;font-variant:normal;font-weight:bold;font-stretch:normal;font-size:192px;line-height:0px;font-family:'Alibaba PuHuiTi';-inkscape-font-specification:'Alibaba PuHuiTi Bold';text-align:center;text-decoration-color:#000000;text-orientation:upright;text-anchor:middle;fill:#deddda;stroke-width:22;paint-order:stroke fill markers"
       x="505.79089"
       y="-846.49823"
       id="text4"
       transform="rotate(90)"><tspan
         id="tspan4"
         x="505.79089"
         y="-846.49823"
         style="writing-mode:lr-tb;text-orientation:sideways;fill:#deddda">?咋还有一节</tspan></text>
    <text
       xml:space="preserve"
       style="font-style:normal;font-variant:normal;font-weight:bold;font-stretch:normal;font-size:192px;line-height:0px;font-family:'Alibaba PuHuiTi';-inkscape-font-specification:'Alibaba PuHuiTi Bold';text-align:center;text-decoration-color:#000000;writing-mode:lr-tb;text-orientation:sideways;text-anchor:middle;fill:#deddda;stroke-width:22;paint-order:stroke fill markers"
       x="392.80576"
       y="-43.72522"
       id="text5"
       transform="rotate(90)"><tspan
         id="tspan5"
         x="392.80576"
         y="-43.72522">我去好困</tspan></text>
  </g>
  <g
     id="g10">
    <path
       style="font-weight:bold;font-size:682.667px;line-height:0px;font-family:'Alibaba PuHuiTi';-inkscape-font-specification:'Alibaba PuHuiTi Bold';text-align:center;text-orientation:upright;text-anchor:middle;fill:#ffffff;stroke-width:22;paint-order:stroke fill markers"
       d="m 315.73323,378.53858 q -7.50933,-12.28801 -18.43201,-28.67201 -10.24,-16.38401 -21.84534,-32.76802 -10.92267,-16.38401 -21.84534,-31.40268 -10.92268,-15.70134 -19.11468,-25.94135 l 66.90137,-47.78669 q 8.87467,10.24001 19.79734,25.25868 11.60534,15.01868 23.21068,31.40268 11.60534,16.38401 21.84534,32.08535 10.92267,15.70134 18.43201,27.98935 z m 336.55483,238.25078 q 31.40268,31.40268 72.3627,56.66136 41.64269,25.25868 92.16004,48.46936 l -40.27735,75.09337 Q 729.42943,770.38943 689.15208,737.62142 648.87472,704.8534 617.47204,670.72005 v 141.31207 h -77.82403 v -130.3894 q -23.89335,30.72002 -54.61336,60.0747 -30.03735,29.35468 -74.41071,62.1227 l -47.10402,-70.99737 q 49.83469,-30.03735 82.60271,-56.66136 33.45068,-27.30668 60.07469,-59.39203 H 376.49059 V 543.74399 H 539.64801 V 510.29331 H 398.33594 V 228.35184 h 361.8135 v 281.94147 h -142.6774 v 33.45068 h 172.03209 v 73.04537 z M 475.47731,297.98387 v 36.18136 h 64.1707 v -36.18136 z m 206.16543,0 h -64.1707 v 36.18136 h 64.1707 z M 539.64801,440.66128 v -36.86402 h -64.1707 v 36.86402 z m 141.99473,0 v -36.86402 h -64.1707 v 36.86402 z M 407.21061,685.73873 q -4.77867,4.096 -13.65334,12.97067 -8.192,8.192 -19.11468,18.43201 -10.24,10.24 -21.16267,21.16267 -10.92267,10.24001 -19.79735,19.11468 -10.24,9.55734 -19.79734,19.11468 -8.87467,9.55733 -15.70134,17.06667 l -47.10402,-55.97869 q 9.55734,-9.55734 13.65334,-21.16268 4.77867,-12.288 4.77867,-25.94134 V 488.44797 h -62.1227 v -83.96804 h 136.5334 v 246.44278 q 5.46134,-6.144 14.33601,-15.70134 8.87467,-10.24001 15.01867,-17.74934 z"
       id="text6"
       aria-label="课" />
    <path
       d="m 347.84014,81.018978 q 6.912,5.184 15.168,12.096 8.256,6.72 16.512,14.016002 8.448,7.104 15.936,14.016 7.68,6.912 13.056,12.288 l -17.088,21.504 q -4.8,-5.76 -11.52,-12.672 -6.72,-7.104 -14.208,-14.4 -7.488,-7.296 -15.36,-14.016 -7.68,-6.912 -14.592,-12.288 v 88.896 h -24 v -86.592 q -11.904,13.632 -25.536,26.304 -13.632,12.672 -29.952,25.344 l -17.856,-19.968 q 27.072,-18.048 46.848,-38.976002 19.776,-21.12 32.64,-43.008 h -69.12 v -24.768 h 150.336 v 24.768 h -52.608 q -4.224,7.68 -8.832,14.976 -4.416,7.296 -9.408,14.4 l 7.488,0.192 v 13.056 z m 107.32786,16.896 q -4.224,5.952002 -9.024,11.712002 -4.8,5.568 -9.984,10.944 l -9.984,-21.696002 q 16.32,-14.976 26.304,-34.752 h -18.24 v -21.312 h 20.928 v -22.08 l 23.04,0.96 v 21.12 h 17.472 v 21.312 h -17.472 v 13.056 l 5.184,-6.336 q 8.64,6.528 18.24,16.512 v -59.904 h 84.288 v 98.688002 h -67.2 q 2.112,2.496 4.608,5.76 2.688,3.072 5.184,6.528 2.496,3.264 4.608,6.336 2.304,3.072 3.648,5.376 l -17.28,14.976 q -1.536,-2.496 -4.224,-6.336 -2.496,-4.032 -5.568,-8.064 -2.88,-4.224 -5.952,-8.064 -2.88,-3.84 -4.8,-6.144 l 13.44,-10.368 H 501.632 V 90.426978 l -10.944,14.784002 q -5.76,-6.720002 -12.48,-13.056002 v 37.440002 h -23.04 z m 68.736,-51.456 v 8.064 h 39.168 v -8.064 z m 39.168,34.176 v -8.064 h -39.168 v 8.064 z m 0,26.496002 v -8.256002 h -39.168 v 8.256002 z m 11.712,24.384 q 2.88,4.032 6.144,9.216 3.456,4.992 6.912,10.56 3.456,5.376 6.528,10.752 3.264,5.376 5.568,9.792 l -19.392,13.632 q -2.304,-4.8 -5.376,-10.56 -3.072,-5.568 -6.528,-11.328 -3.264,-5.76 -6.528,-11.136 -3.264,-5.376 -6.144,-9.216 z m -148.608,43.968 q 2.88,-4.416 5.568,-9.6 2.688,-5.376 5.184,-10.944 2.688,-5.568 4.8,-10.944 2.304,-5.568 4.032,-10.56 l 21.12,8.064 q -1.92,5.76 -4.416,11.712 -2.496,5.952 -5.376,11.904 -2.688,5.76 -5.568,11.136 -2.88,5.568 -5.568,10.176 z m 110.4,-12.864 q 0.576,-2.688 0.96,-5.952 0.384,-3.264 0.576,-5.76 l 22.464,6.528 q -0.384,3.648 -0.96,7.296 -0.576,3.648 -1.536,8.448 -1.152,5.76 -2.688,9.408 -1.344,3.84 -4.032,6.144 -2.688,2.304 -7.104,3.264 -4.416,0.96 -11.52,1.152 -19.2,0.576 -38.4,0 -13.056,-0.384 -18.624,-5.376 -5.376,-4.8 -5.376,-16.32 v -36.288 l 22.656,0.96 v 26.496 q 0,5.76 1.344,7.488 1.536,1.536 7.104,1.728 12.48,0.576 25.152,0 2.88,-0.192 4.608,-0.576 1.728,-0.384 2.688,-1.344 1.152,-1.152 1.536,-2.88 0.576,-1.728 1.152,-4.416 z m 249.02386,0.576 v 23.808 h -167.808 v -23.808 h 66.624 V 21.498978 l 25.344,0.96 v 48.192 h 63.36 v 23.616 h -63.36 v 68.928002 z"
       id="text7"
       style="font-weight:bold;font-size:192px;line-height:0px;font-family:'Alibaba PuHuiTi';-inkscape-font-specification:'Alibaba PuHuiTi Bold';text-align:center;text-orientation:upright;text-anchor:middle;fill:#deddda;stroke-width:22;paint-order:stroke fill markers"
       aria-label="不想上" />
    <path
       d="m 29.525583,988.46027 q 10.752,-9.216 17.856,-16.704 7.104,-7.488 11.328,-16.512 4.416,-9.024 6.144,-20.928 1.92,-12.096 1.92,-30.528 v -64.512 h 95.999997 v 129.984 q 0,5.376 1.152,6.528 1.344,1.152 5.568,1.152 h 4.8 q 2.88,0 4.224,-1.344 1.536,-1.536 2.496,-6.336 0.96,-4.992 1.344,-11.136 0.576,-6.144 0.768,-13.248 l 23.424,8.064 q -0.384,6.72 -0.96,13.056 -0.576,6.336 -1.536,13.056 -1.152,6.72 -2.688,10.944 -1.536,4.224 -4.224,6.72 -2.496,2.496 -6.528,3.64803 -3.84,1.152 -9.792,1.536 -10.176,0.576 -19.968,0 -5.952,-0.384 -10.368,-1.536 -4.224,-1.15203 -7.104,-3.84003 -2.88,-2.688 -4.416,-7.296 -1.344,-4.416 -1.344,-11.328 v -112.896 H 91.733583 v 38.784 q 0,20.736 -1.92,34.944 -1.92,14.208 -6.72,25.344 -4.8,10.944 -13.056,20.544 -8.064,9.6 -20.352,21.31203 z m 343.871857,-37.824 h -131.328 v -68.736 h 48 v -49.152 l 25.152,0.96 v 13.248 h 67.008 v 23.616 h -67.008 v 11.328 h 58.176 z m -24,-44.928 h -83.328 v 22.464 h 83.328 z m 21.12,45.312 q 2.496,4.608 5.568,9.792 3.072,5.184 5.952,10.56 3.072,5.184 5.76,10.176 2.88,4.992 5.184,9.216 l -20.352,13.05603 q -2.112,-4.22403 -4.992,-9.79203 -2.688,-5.376 -5.952,-11.136 -3.072,-5.952 -6.336,-11.52 -3.072,-5.76 -5.568,-10.56 z m -149.952,42.816 q 3.456,-4.8 6.72,-10.176 3.264,-5.568 6.144,-11.136 2.88,-5.76 4.992,-10.944 2.304,-5.376 3.84,-9.984 l 21.312,8.832 q -1.92,5.376 -4.608,11.52 -2.688,6.144 -5.76,12.288 -2.88,5.952 -5.76,11.52 -2.88,5.76003 -5.376,10.17603 z m 111.36,-38.784 q 1.728,4.032 3.648,8.832 1.92,4.8 3.648,9.792 1.92,4.992 3.648,9.792 1.728,4.8 2.88,8.448 l -21.888,7.872 q -1.152,-4.224 -2.688,-9.216 -1.536,-4.8 -3.456,-9.792 -1.728,-5.184 -3.648,-10.176 -1.728,-4.992 -3.456,-9.024 z m -37.248,1.92 q 0.96,4.032 2.112,9.216 1.152,4.992 2.304,10.368 1.344,5.184 2.304,10.176 1.152,5.184 1.92,9.024 l -23.616,5.37603 q -1.152,-9.79203 -3.456,-20.54403 -2.112,-10.944 -4.032,-19.2 z m 287.03986,0.192 q -0.192,2.304 -0.384,5.184 -0.192,2.688 -0.576,5.568 -0.384,2.88 -0.768,5.568 -0.384,2.688 -0.768,4.608 -1.344,6.144 -3.264,10.176 -1.728,4.224 -4.8,6.72 -3.072,2.496 -8.064,3.648 -4.8,1.152 -12.288,1.72803 -22.848,1.536 -46.272,0 -9.6,-0.57603 -16.128,-5.95203 -6.528,-5.184 -6.528,-14.4 0,-5.184 1.92,-10.56 2.112,-5.568 7.296,-12.864 5.376,-7.488 14.784,-17.664 9.408,-10.176 24.384,-24.576 h -37.824 v -15.36 l -5.184,6.912 -9.024,-9.216 v 81.024 h -57.792 v -132.48 h 57.792 v 32.448 q 7.872,-10.752 13.824,-22.464 6.144,-11.712 11.712,-25.536 l 23.424,8.256 q -1.536,3.648 -2.88,7.104 -1.344,3.264 -2.88,6.528 h 55.296 v 23.616 h -67.968 q -2.688,4.032 -5.376,8.064 -2.496,4.032 -5.184,7.872 h 66.432 v 23.04 q -18.432,16.896 -29.568,27.84 -11.136,10.944 -17.088,17.664 -5.952,6.528 -7.872,9.984 -1.728,3.264 -1.728,4.992 0,2.112 0.768,2.496 0.768,0.192 2.496,0.384 18.24,1.152 36.48,0 2.688,-0.192 4.224,-0.384 1.536,-0.384 2.304,-1.344 0.96,-0.96 1.344,-2.496 0.576,-1.728 1.152,-4.416 0.192,-1.344 0.576,-3.648 0.384,-2.304 0.576,-4.8 0.384,-2.688 0.576,-5.376 0.192,-2.688 0.192,-4.8 z m -125.76,-88.512 h -13.056 v 85.44 h 13.056 z m 283.58385,92.928 q 6.72,6.528 14.976,12.48 8.256,5.952 18.624,12.096 l -11.712,22.08003 q -10.368,-8.064 -19.008,-15.55203 -8.64,-7.296 -15.936,-15.36 -7.488,8.064 -17.088,15.552 -9.408,7.68003 -21.312,15.36003 l -9.6,-16.12803 q -3.264,6.72 -7.104,12.86403 l -19.584,-13.82403 q 2.112,-3.456 4.032,-6.72 2.112,-3.456 3.648,-6.72 -4.032,2.88 -9.216,6.528 -5.184,3.456 -9.408,6.528 -2.88,2.112 -5.76,4.224 -2.688,2.112 -4.992,4.224 l -12.48,-20.928 q 3.84,-2.688 4.608,-5.76 0.768,-3.072 0.768,-8.064 v -63.552 q -4.032,7.488 -8.64,15.552 l -19.008,-17.664 q 11.328,-15.36 18.432,-32.832 7.104,-17.472 11.52,-36.672 l 21.888,5.568 q -0.96,5.184 -2.304,10.176 -1.152,4.8 -2.496,9.408 h 28.032 v 22.656 l -11.328,25.92 -15.744,-7.488 9.024,-19.008 h -17.856 q -2.112,5.184 -4.416,10.176 -2.304,4.992 -4.992,10.176 l 19.584,1.344 v 62.016 q 3.456,-2.112 7.872,-5.376 4.608,-3.456 8.064,-5.76 l 3.84,18.048 q 3.072,-7.488 4.992,-14.976 2.112,-7.488 3.264,-15.936 1.152,-8.64 1.536,-18.432 0.576,-9.792 0.576,-21.696 v -50.688 q 23.424,-1.536 43.2,-4.8 19.776,-3.264 39.744,-7.296 l 4.8,24.192 q -17.664,3.648 -34.368,6.336 -16.512,2.688 -32.448,4.224 v 14.016 h 66.816 v 23.232 q -3.84,17.28 -9.408,30.912 -5.568,13.632 -13.632,25.344 z m -14.016,-17.664 q 6.144,-9.6 9.408,-19.392 3.456,-9.792 6.144,-20.544 h -45.312 q 0,2.112 0,4.224 0,1.92 -0.192,4.032 l 15.552,-6.144 q 2.688,11.52 6.144,20.736 3.456,9.216 8.256,17.088 z m -43.2,40.32 q 9.792,-6.336 17.28,-12.288 7.488,-6.144 13.248,-12.096 -5.568,-8.448 -9.984,-17.856 -4.224,-9.6 -7.488,-21.12 -0.384,9.792 -1.344,18.24 -0.96,8.448 -2.496,16.128 -1.536,7.68 -3.84,14.784 -2.304,7.104 -5.376,14.208 z"
       id="text8"
       style="font-weight:bold;font-size:192px;line-height:0px;font-family:'Alibaba PuHuiTi';-inkscape-font-specification:'Alibaba PuHuiTi Bold';text-align:center;text-orientation:upright;text-anchor:middle;fill:#deddda;stroke-width:22;paint-order:stroke fill markers"
       aria-label="几点吃饭" />
    <path
       style="font-weight:bold;font-size:192px;line-height:0px;font-family:'Alibaba PuHuiTi';-inkscape-font-specification:'Alibaba PuHuiTi Bold';text-align:center;text-orientation:sideways;text-anchor:middle;fill:#deddda;stroke-width:22;paint-order:stroke fill markers"
       d="m 16.47931,-898.91423 q 0,-4.032 0.576,-7.296 0.768,-3.456 2.496,-6.528 1.728,-3.072 4.608,-6.144 2.88,-3.072 7.104,-6.72 3.072,-2.496 4.992,-4.608 2.112,-2.112 3.264,-4.032 1.152,-2.112 1.536,-4.416 0.384,-2.304 0.384,-5.376 0,-4.416 -0.96,-7.104 -0.96,-2.688 -3.456,-4.224 -2.304,-1.536 -6.336,-2.112 -3.84,-0.576 -9.6,-0.576 -5.952,0 -12.2880004,0.96 -6.144,0.768 -11.136,2.304 v -23.808 q 5.376,-1.536 12.8640004,-2.496 7.488,-0.96 16.128,-0.96 11.712,0 20.16,1.536 8.448,1.536 13.824,5.376 5.568,3.84 8.064,10.56 2.496,6.528 2.496,16.512 0,6.72 -0.96,11.52 -0.768,4.8 -2.88,8.832 -1.92,3.84 -5.376,7.296 -3.264,3.264 -8.064,6.912 -4.416,3.264 -7.104,5.76 -2.688,2.496 -4.224,4.608 -1.536,1.92 -2.112,4.032 -0.576,1.92 -0.576,4.416 v 4.416 h -23.424 z m 11.904,53.568 q -5.184,0 -8.448,-0.576 -3.072,-0.576 -4.992,-2.304 -1.728,-1.728 -2.304,-4.8 -0.576,-3.264 -0.576,-8.448 0,-4.992 0.576,-8.064 0.576,-3.264 2.304,-4.992 1.92,-1.728 4.992,-2.304 3.264,-0.576 8.448,-0.576 5.184,0 8.256,0.576 3.264,0.576 4.992,2.304 1.728,1.728 2.304,4.992 0.768,3.072 0.768,8.064 0,5.184 -0.768,8.448 -0.576,3.072 -2.304,4.8 -1.728,1.728 -4.992,2.304 -3.072,0.576 -8.256,0.576 z m 175.10389,-106.56 v 20.352 h 40.512 v 23.232 h -40.512 v 21.312 h 45.12 v 23.424 h -45.12 v 35.136 h -24 v -120.192 q -9.408,18.624 -20.544,32.832 l -7.104,-9.408 v 78.336 H 92.319195 v -137.088 H 151.8392 v 37.632 q 7.68,-12.096 13.824,-25.728 6.336,-13.632 10.752,-28.60797 l 22.848,4.60797 q -1.536,4.992 -3.456,10.176 -1.728,4.992 -3.84,9.984 h 62.976 v 24 z m -74.688,-7.872 h -13.248 v 88.512 h 13.248 z m 180.86385,9.6 q -2.496,-3.648 -5.76,-8.064 -3.264,-4.416 -6.912,-8.832 -3.456,-4.608 -7.296,-9.024 -3.648,-4.416 -7.104,-8.256 l 17.472,-14.784 q 3.072,3.264 6.72,7.104 3.648,3.84 7.104,7.872 3.648,4.032 6.912,8.064 3.264,4.032 5.568,7.488 z m 70.08,96.768 q 16.704,0.384 34.176,-0.192 17.472,-0.576 32.448,-1.536 l -5.184,23.232 q -5.952,0.192 -14.208,0.384 -8.064,0.384 -16.32,0.384 -8.064,0.192 -15.552,0.192 -7.296,0.192 -11.712,0 -13.824,-0.384 -24.192,-0.96 -10.176,-0.384 -18.816,-2.304 -8.448,-1.92 -16.32,-6.144 -7.68,-4.224 -16.512,-12.096 -4.032,5.184 -8.256,9.984 -4.032,4.992 -10.752,11.712 l -15.552,-16.704 q 7.104,-6.72 13.248,-13.632 6.144,-6.912 10.752,-12.48 v -45.12 h -16.896 v -23.616 h 40.512 v 43.2 q 16.512,-14.208 29.376,-30.528 13.056,-16.512 23.808,-37.248 h -42.048 v -23.424 h 105.408 v 23.424 h -37.056 q -2.688,5.568 -5.568,11.328 -2.88,5.568 -6.144,11.136 l 5.184,0.192 v 8.256 l 7.68,-8.064 q 4.8,4.608 10.752,10.752 5.952,6.144 11.904,12.672 5.952,6.528 11.328,12.672 5.568,6.144 9.6,10.944 l -15.744,18.624 q -3.264,-4.224 -7.68,-9.792 -4.224,-5.568 -9.024,-11.52 -4.8,-5.952 -9.792,-11.712 -4.8,-5.952 -9.024,-10.56 v 62.592 h -24.192 v -56.64 q -8.256,10.944 -17.664,20.928 -9.216,9.984 -19.584,19.2 l -11.52,-14.208 v 21.312 q 6.72,5.184 12.864,8.064 6.144,2.88 12.864,4.608 6.912,1.536 14.784,2.112 8.064,0.384 18.624,0.576 z m 156.86386,-107.136 q -1.536,3.072 -3.264,6.144 -1.728,2.88 -3.648,5.76 h 83.712 v 95.616 q 0,7.68 -1.344,12.48 -1.344,4.8 -4.416,7.68 -2.88,2.88 -7.872,4.224 -4.992,1.344 -12.48,1.92 l -13.056,1.152 -8.064,-22.464 14.208,-1.344 q 3.072,-0.192 4.8,-0.768 1.92,-0.768 2.88,-2.112 1.152,-1.344 1.536,-3.648 0.384,-2.304 0.384,-6.144 h -71.616 v 34.944 h -23.04 v -78.912 q -9.408,9.024 -20.928,18.048 l -14.592,-20.928 q 14.208,-10.368 26.496,-23.232 12.48,-13.056 22.464,-28.416 h -37.632 v -22.656 h 50.112 q 2.112,-4.416 3.84,-8.832 1.92,-4.608 3.456,-9.21597 l 24.96,4.22397 q -2.88,7.296 -5.76,13.824 h 82.56 v 22.656 z m 53.376,33.024 h -71.616 v 12.288 h 71.616 z m -71.616,45.12 h 71.616 v -12.672 h -71.616 z m 302.78385,-24.96 h -167.04 v -26.88 h 167.04 z m 188.73584,-73.536 v 24.192 h -43.00798 v 14.208 h -24.192 v -14.208 h -32.64 v 14.208 h -24.192 v -14.208 h -43.008 v -24.192 h 43.008 v -18.048 l 24.192,0.96 v 17.088 h 32.64 v -18.048 l 24.192,0.96 v 17.088 z m -159.35998,43.2 h 143.808 q -0.192,5.184 -0.384,13.824 -0.192,8.448 -0.576,17.28 -0.192,8.832 -0.384,16.704 -0.192,7.872 -0.384,11.904 -0.384,9.024 -1.728,14.784 -1.344,5.568 -4.416,8.832 -2.88,3.264 -7.872,4.8 -4.992,1.536 -12.48,2.112 l -20.928,1.536 -7.296,-24.192 14.976,-1.344 q 4.992,-0.384 7.872,-1.152 2.88,-0.96 4.224,-2.496 1.536,-1.728 1.92,-4.224 0.576,-2.688 0.768,-6.72 0.192,-2.88 0.384,-7.296 0.192,-4.608 0.192,-8.832 0.192,-4.416 0.192,-7.68 0.192,-3.456 0.192,-4.032 h -53.376 v 85.824 h -25.536 v -85.824 h -39.168 z"
       id="text9"
       transform="rotate(90)"
       aria-label="?咋还有一节" />
    <path
       d="m 193.31804,-61.00522 q -2.88,12.288 -5.952,20.16 -4.224,10.752 -10.368,14.4 -5.952,3.84 -14.016,3.84 -8.064,0 -14.4,-4.992 -6.336,-4.992 -12.672,-15.936 -1.536,-2.688 -3.072,-5.76 -1.344,-3.072 -2.88,-6.72 -8.448,5.952 -17.472,11.52 -8.832,5.376 -18.623997,10.368 l -11.136,-21.504 v 5.952 q 0,6.72 -1.152,10.944 -1.152,4.416 -3.84,7.104 -2.496,2.688 -6.72,3.84 -4.224,1.344 -10.176,1.728 l -14.976,1.152 -6.912,-22.464 13.632,-1.152 q 4.608,-0.384 5.76,-2.88 1.344,-2.688 1.344,-8.064 v -19.392 q -10.368,2.112 -18.816,4.032 -8.256,1.728 -11.328,2.688 l -3.648,-24 q 1.536,-0.192 4.8,-0.576 3.456,-0.576 7.872,-1.344 4.608,-0.96 9.984,-1.92 5.376,-1.152 11.136,-2.304 v -22.272 h -31.68 v -22.464 h 31.68 v -15.936 q -6.336,0.768 -12.864,1.536 -6.336,0.576 -12.864,1.152 l -1.728,-21.888 q 19.008,-1.536 36.288,-4.416 17.28,-3.072 32.831997,-6.912 l 3.648,22.272 q -9.983997,2.496 -22.271997,4.608 v 19.584 h 30.911997 l -0.576,-11.136 q -0.768,-13.056 -1.152,-23.04 -0.384,-10.176 -0.576,-14.592 l 22.656,0.96 q 0,4.416 0.384,13.824 0.384,9.408 1.152,22.08 0.192,3.072 0.384,6.144 0.192,2.88 0.384,5.76 h 52.8 v 22.464 h -19.968 l 16.32,10.56 q -8.064,12.096 -17.088,22.656 -9.024,10.56 -19.776,20.16 3.264,9.6 7.104,16.128 2.112,3.84 3.84,4.992 1.728,1.152 3.456,1.152 1.92,0 3.648,-2.112 1.92,-2.304 3.456,-7.488 1.152,-3.84 1.92,-6.912 0.96,-3.072 1.728,-6.528 z m -26.112,-86.4 q -6.144,-8.064 -14.208,-16.32 -7.872,-8.448 -14.976,-14.4 l 14.592,-15.168 q 3.648,2.88 7.872,6.72 4.224,3.648 8.256,7.68 4.032,4.032 7.872,8.064 3.84,3.84 6.72,7.296 z m -84.479997,90.816 q 11.52,-5.376 21.503997,-10.944 9.984,-5.76 18.624,-11.904 -2.112,-9.216 -4.032,-20.352 -1.728,-11.136 -3.264,-24.768 H 82.726043 v 17.28 q 9.024,-1.92 15.744,-3.264 6.719997,-1.536 9.215997,-2.112 l 1.536,12.288 1.344,10.944 q -3.072,0.576 -10.56,2.112 -7.487997,1.536 -17.279997,3.648 z m 55.487997,-67.968 q 0.96,8.448 1.92,15.744 0.96,7.104 2.304,13.44 6.912,-6.72 12.864,-13.824 5.952,-7.296 10.944,-15.36 z m 161.85586,28.032 q -4.416,6.144 -9.6,12.48 -4.992,6.336 -9.984,12.096 -4.992,5.568 -9.6,10.176 -4.416,4.416 -7.488,6.912 l 67.2,-3.648 q -4.992,-6.72 -9.792,-12.672 -4.608,-6.144 -8.256,-10.56 l 17.472,-12.672 q 4.608,5.376 10.176,12.672 5.76,7.296 11.712,15.168 5.952,7.872 11.328,15.552 5.568,7.488 9.6,13.248 l -17.088,15.936 q -1.728,-3.072 -4.032,-6.72 -2.304,-3.456 -4.992,-7.296 -9.024,0.384 -22.08,0.96 -13.056,0.768 -27.648,1.536 -14.592,0.768 -29.376,1.728 -14.784,0.96 -27.456,1.92 -2.112,0 -4.224,0.192 -1.92,0.192 -4.224,0.576 l -7.296,-24.192 q 5.184,-1.536 8.064,-3.456 3.072,-1.92 5.184,-3.456 1.92,-1.728 5.568,-5.376 3.648,-3.84 7.872,-8.832 4.416,-5.184 9.216,-10.944 4.8,-5.76 9.024,-11.328 h -55.296 v -23.616 h 72.96 v -28.224 h -58.368 v -23.232 h 58.368 v -25.536 l 22.848,0.96 v 24.576 h 57.6 v 23.232 h -57.6 v 28.224 h 72 v 23.616 z m 177.98386,-47.04 q -2.688,22.272 -6.336,38.208 -3.456,15.936 -9.408,28.608 5.568,4.416 10.56,8.832 4.992,4.416 9.024,8.064 l -13.248,21.888 q -8.832,-9.216 -19.008,-18.432 -6.144,7.872 -14.4,15.552 -8.064,7.872 -19.008,16.704 l -17.088,-17.856 q 10.752,-7.68 18.816,-14.592 8.064,-6.912 14.4,-14.976 -6.336,-5.376 -12.48,-9.984 -5.952,-4.608 -11.52,-8.256 3.264,-12.096 5.952,-25.152 2.88,-13.056 4.992,-27.456 h -12.096 v -24.576 h 15.552 q 0.96,-7.104 1.536,-14.4 0.768,-7.296 1.536,-15.36 l 22.848,1.728 q -0.576,5.76 -1.536,12.864 -0.768,7.104 -1.728,15.168 h 32.64 z m 95.04,44.736 h -39.168 v 48.96 q 0,6.912 -1.344,11.328 -1.152,4.416 -4.224,6.912 -2.88,2.688 -7.872,4.032 -4.8,1.344 -11.904,2.304 l -12.48,1.536 -7.68,-24 13.248,-1.536 q 2.88,-0.192 4.416,-0.576 1.536,-0.576 2.304,-1.536 0.768,-0.96 0.96,-2.496 0.192,-1.728 0.192,-4.416 v -40.512 h -31.872 v -24.576 h 31.872 v -18.432 l 29.568,-23.232 h -55.488 v -24 h 85.632 v 23.808 l -35.328,31.872 v 9.984 h 39.168 z m -140.16,-1.152 q 4.608,3.264 11.328,8.448 4.416,-9.792 7.296,-22.08 3.072,-12.48 5.184,-28.8 h -15.168 q -1.92,11.136 -4.032,22.08 -2.112,10.944 -4.608,20.352 z m 320.06385,-90.816 v 162.816 h -152.64 v -162.816 z m -23.04,22.848 h -106.368 v 79.68 q 10.944,-8.448 19.968,-17.664 9.216,-9.408 15.744,-19.584 h -29.76 v -22.464 h 35.904 v -15.744 l 22.464,0.96 v 14.784 h 35.712 v 22.464 h -35.712 v 12.096 l 6.336,-7.488 q 3.648,3.072 8.448,7.296 4.992,4.032 9.792,8.64 4.992,4.416 9.408,8.832 4.608,4.224 7.68,7.488 l -13.632,19.008 q -2.688,-2.88 -6.144,-6.336 -3.456,-3.648 -7.296,-7.296 -3.648,-3.84 -7.488,-7.488 -3.648,-3.648 -7.104,-6.72 v 39.168 h -22.464 v -39.936 q -6.528,9.024 -14.208,17.472 -7.488,8.256 -15.744,14.976 l -11.904,-16.32 v 31.296 h 106.368 z"
       id="text10"
       style="font-weight:bold;font-size:192px;line-height:0px;font-family:'Alibaba PuHuiTi';-inkscape-font-specification:'Alibaba PuHuiTi Bold';text-align:center;text-orientation:sideways;text-anchor:middle;fill:#deddda;stroke-width:22;paint-order:stroke fill markers"
       transform="rotate(90)"
       aria-label="我去好困" />
  </g>
</svg>
